<svg width="18" height="10" viewBox="0 0 18 10" fill="none" xmlns="http://www.w3.org/2000/svg">
<path d="M7.54545 7.90908H17M7.54545 7.90908C7.54545 8.29485 7.39221 8.66482 7.11943 8.9376C6.84665 9.21038 6.47668 9.36363 6.09091 9.36363C5.70514 9.36363 5.33517 9.21038 5.06239 8.9376C4.78961 8.66482 4.63636 8.29485 4.63636 7.90908M7.54545 7.90908C7.54545 7.52331 7.39221 7.15334 7.11943 6.88056C6.84665 6.60778 6.47668 6.45453 6.09091 6.45453C5.70514 6.45453 5.33517 6.60778 5.06239 6.88056C4.78961 7.15334 4.63636 7.52331 4.63636 7.90908M4.63636 7.90908H1M13.3636 2.0909H17M13.3636 2.0909C13.3636 2.47667 13.2104 2.84664 12.9376 3.11942C12.6648 3.3922 12.2949 3.54544 11.9091 3.54544C11.5233 3.54544 11.1534 3.3922 10.8806 3.11942C10.6078 2.84664 10.4545 2.47667 10.4545 2.0909M13.3636 2.0909C13.3636 1.70513 13.2104 1.33516 12.9376 1.06238C12.6648 0.789598 12.2949 0.636353 11.9091 0.636353C11.5233 0.636353 11.1534 0.789598 10.8806 1.06238C10.6078 1.33516 10.4545 1.70513 10.4545 2.0909M10.4545 2.0909H1" stroke="#808080" stroke-linecap="round" stroke-linejoin="round"/>
</svg>
