<svg width="54" height="54" viewBox="0 0 54 54" fill="none" xmlns="http://www.w3.org/2000/svg">
<g clip-path="url(#clip0_12_483)">
<path d="M0 0H54V54H0V0Z" fill="#B50938"/>
<path d="M8.47858 32.8701L7.80945 31.3793H5.68584L5.66471 31.4368C5.47688 31.87 5.27556 32.366 5.09536 32.812H4.30356L6.0163 29.126C6.29686 28.5214 6.48469 28.0976 6.64258 27.6803L6.83041 27.6292L8.55782 31.3364C8.76032 31.7825 9.0403 32.3665 9.27038 32.812L8.47858 32.8701ZM7.54297 30.7888L6.74412 28.9974L5.95232 30.7888H7.54297ZM13.8786 32.8631L12.5832 30.8252H11.7978V31.7761C11.7978 32.056 11.8043 32.6107 11.8266 32.812H11.0277C11.0635 32.4663 11.0776 31.5442 11.0776 31.077V29.4863C11.0776 29.0256 11.0635 28.097 11.0277 27.7513C11.2866 27.7513 12.0203 27.7231 12.3519 27.7161C13.6191 27.6944 14.3164 28.3928 14.2953 29.1911C14.2921 29.5152 14.1886 29.8303 13.9991 30.0932C13.8096 30.3562 13.5434 30.554 13.237 30.6597L13.9719 31.7397C14.1656 32.0132 14.5624 32.5673 14.7273 32.7686L13.8786 32.8631ZM11.7984 30.2283H12.5251C12.656 30.2402 12.7879 30.2247 12.9125 30.1826C13.037 30.1406 13.1514 30.073 13.2483 29.9842C13.3453 29.8954 13.4226 29.7874 13.4753 29.667C13.528 29.5466 13.555 29.4165 13.5546 29.285C13.5546 28.6658 13.1801 28.343 12.4247 28.343C12.194 28.343 11.9927 28.3494 11.8049 28.3635C11.799 28.5079 11.799 28.6734 11.799 28.7808L11.7984 30.2283ZM20.0991 28.3635C19.5445 28.3565 19.0626 28.3494 18.4216 28.3494C18.414 28.5008 18.414 28.6875 18.414 28.8025V31.7761C18.414 32.056 18.4216 32.6107 18.4433 32.812H17.6451C17.6803 32.4663 17.6944 31.5448 17.6944 31.0776V29.5157C17.6944 29.2205 17.6879 28.7526 17.6733 28.3494C17.0323 28.3494 16.5287 28.3565 15.9746 28.3635C15.9956 28.1458 16.0052 27.9272 16.0034 27.7085C17.3876 27.7568 18.773 27.7568 20.1573 27.7085C20.1223 27.9251 20.1028 28.144 20.0991 28.3635ZM5.08069 40.9578C5.11767 40.6145 5.13117 39.6982 5.13117 39.2333V37.6509C5.13117 37.1931 5.11767 36.2704 5.08069 35.9264C5.34762 35.93 5.61454 35.9182 5.88012 35.8912C5.85841 36.0984 5.85136 36.6707 5.85136 36.9501V39.9277C5.85136 40.1989 5.85841 40.7583 5.88012 40.9584L5.08069 40.9578ZM12.7193 36.9495L12.6694 39.9706C12.6694 40.25 12.6624 40.8299 12.6835 41.03L12.4969 41.0799L9.19232 37.3075V39.9271C9.19232 40.2065 9.19936 40.7583 9.22167 40.9578H8.42928C8.47271 40.6145 8.50852 39.6982 8.51556 39.2328L8.54491 37.5089C8.55195 37.0505 8.55195 36.1982 8.51556 35.8548L8.71043 35.8043L12.0438 39.6336V37.6509C12.0438 37.1931 12.0291 36.2704 11.9862 35.9264C12.2506 35.9296 12.515 35.9179 12.778 35.8912C12.7487 36.0984 12.727 36.6701 12.7193 36.9495ZM16.2194 41.087C15.7179 41.0731 15.229 40.9273 14.8019 40.6643L14.8447 39.906C15.2458 40.2351 15.7437 40.4235 16.2622 40.4425C16.8022 40.4425 17.1837 40.1783 17.1837 39.6477C17.1837 38.647 15.0032 38.5965 15.0032 37.2788C15.0069 37.0763 15.0514 36.8767 15.1341 36.6919C15.2168 36.5071 15.336 36.3408 15.4844 36.2032C15.6329 36.0655 15.8076 35.9592 15.9982 35.8907C16.1887 35.8221 16.3911 35.7928 16.5933 35.8043C17.0161 35.8015 17.4291 35.9319 17.7736 36.1771L17.5359 36.8069C17.2573 36.5896 16.918 36.4645 16.5651 36.4488C16.0386 36.4488 15.7222 36.7288 15.7222 37.1796C15.7222 38.0741 17.8963 38.117 17.8963 39.5485C17.8979 39.763 17.8545 39.9754 17.7689 40.172C17.6833 40.3686 17.5575 40.5451 17.3994 40.6901C17.2414 40.8351 17.0547 40.9453 16.8515 41.0137C16.6482 41.082 16.4329 41.107 16.2194 41.087ZM23.6127 36.5345C23.0537 36.526 22.4947 36.5215 21.9357 36.521C21.9275 36.6707 21.9275 36.8568 21.9275 36.9712V39.9277C21.9275 40.2065 21.9351 40.7577 21.9569 40.9584H21.1586C21.1938 40.6144 21.2079 39.6982 21.2079 39.2328V37.6803C21.2079 37.3868 21.2015 36.9213 21.1862 36.521C20.5464 36.521 20.0416 36.5269 19.4881 36.5345C19.5091 36.3182 19.5187 36.1009 19.5169 35.8836C20.1719 35.9047 20.7841 35.9188 21.5683 35.9188C22.3525 35.9188 23.0075 35.9047 23.6702 35.8836C23.6357 36.0989 23.6165 36.3165 23.6127 36.5345ZM25.5643 40.9578C25.6013 40.6145 25.6154 39.6982 25.6154 39.2333V37.6509C25.6154 37.1931 25.6013 36.2704 25.5643 35.9264C25.8312 35.93 26.0981 35.9182 26.3637 35.8912C26.342 36.0984 26.335 36.6707 26.335 36.9501V39.9277C26.335 40.1989 26.342 40.7583 26.3637 40.9584L25.5643 40.9578ZM32.3395 36.5345C31.7849 36.5269 31.303 36.521 30.662 36.521C30.6544 36.6707 30.6544 36.8568 30.6544 36.9712V39.9277C30.6544 40.2065 30.662 40.7577 30.6837 40.9584H29.8855C29.9207 40.6144 29.9348 39.6982 29.9348 39.2328V37.6803C29.9348 37.3868 29.9277 36.9213 29.9136 36.521C29.2727 36.521 28.7691 36.5269 28.215 36.5345C28.236 36.3182 28.2456 36.1009 28.2438 35.8836C28.8982 35.9047 29.511 35.9188 30.2952 35.9188C31.0793 35.9188 31.7344 35.9047 32.3971 35.8836C32.3623 36.0989 32.3431 36.3164 32.3395 36.5345ZM38.6892 35.9335L37.0769 39.599C36.811 40.2065 36.6378 40.6215 36.494 41.0365L36.3068 41.087L34.695 37.4079C34.4807 36.9135 34.2549 36.4243 34.0176 35.9405L34.81 35.8836L36.386 39.6413L37.358 37.3011C37.5306 36.8785 37.7184 36.3848 37.8839 35.9335H38.6892ZM44.118 36.5345C43.5633 36.5269 43.082 36.521 42.4411 36.521C42.4334 36.6707 42.4334 36.8568 42.4334 36.9712V39.9277C42.4334 40.2065 42.4411 40.7577 42.4628 40.9584H41.6639C41.6997 40.6144 41.7138 39.6982 41.7138 39.2328V37.6803C41.7138 37.3868 41.7068 36.9213 41.6921 36.521C41.0517 36.521 40.5475 36.5269 39.994 36.5345C40.0148 36.3182 40.0242 36.1009 40.0222 35.8836C40.6773 35.9047 41.29 35.9188 42.0742 35.9188C42.8584 35.9188 43.5128 35.9047 44.1755 35.8836C44.1409 36.0989 44.1217 36.3164 44.118 36.5345ZM49.2022 40.9872C48.7696 40.9578 48.2373 40.9508 47.726 40.9508C47.2148 40.9508 46.6748 40.9584 46.2504 40.9866C46.2856 40.6432 46.3009 39.7199 46.3009 39.2621V37.6081C46.3009 37.1438 46.2862 36.2269 46.2504 35.8836C47.2025 35.9303 48.1562 35.9303 49.1083 35.8836C49.0733 36.0942 49.0537 36.307 49.0496 36.5204C48.6258 36.5134 48.1868 36.5063 47.6755 36.5063C47.4595 36.5063 47.2435 36.5063 47.0346 36.5134C47.0205 36.6425 47.0205 36.828 47.0205 36.936V38.0166H48.7696C48.7544 38.2119 48.7472 38.4077 48.7479 38.6035H47.0211V39.9277C47.0211 40.0345 47.0211 40.2282 47.0352 40.3562C47.2435 40.3562 47.4601 40.3638 47.6761 40.3638C48.259 40.3638 48.7632 40.3568 49.2521 40.3427C49.2233 40.5564 49.2066 40.7716 49.2022 40.9872ZM8.8243 48.823C8.35596 49.1964 7.77449 49.3993 7.17554 49.3983C6.84329 49.4013 6.51377 49.338 6.2063 49.2121C5.89884 49.0861 5.61963 48.9 5.38504 48.6647C5.15045 48.4294 4.9652 48.1496 4.84017 47.8418C4.71513 47.5339 4.65283 47.2042 4.65691 46.872C4.6415 46.5131 4.69869 46.1547 4.82503 45.8184C4.95137 45.482 5.14427 45.1747 5.39219 44.9146C5.64011 44.6546 5.93795 44.4473 6.26787 44.305C6.5978 44.1628 6.95303 44.0886 7.3123 44.0869C7.84497 44.0871 8.36569 44.2448 8.80904 44.54L8.60771 45.2021C8.22581 44.9021 7.75506 44.7376 7.26945 44.7343C7.01383 44.7347 6.76097 44.7872 6.52636 44.8887C6.29175 44.9902 6.08032 45.1385 5.90503 45.3246C5.72975 45.5106 5.59428 45.7305 5.50693 45.9708C5.41959 46.211 5.3822 46.4665 5.39706 46.7217C5.39706 48.0383 6.20354 48.7508 7.2178 48.7508C7.52863 48.7477 7.83563 48.6818 8.12029 48.5569C8.40495 48.432 8.6614 48.2508 8.87419 48.0242L8.8243 48.823ZM14.3323 49.2691C14.3751 48.9228 14.3898 48.0019 14.3898 47.5335V46.9301H11.7485V48.2331C11.7485 48.5061 11.7544 49.0684 11.7767 49.2697H10.9773C11.0131 48.9234 11.0283 48.0019 11.0283 47.5341V45.9434C11.0283 45.4827 11.0131 44.5547 10.9773 44.209C11.2442 44.2125 11.5112 44.2003 11.7767 44.1726C11.755 44.3815 11.7479 44.9573 11.7479 45.2385V46.3396H14.3898V45.9434C14.3898 45.4827 14.3751 44.5547 14.3323 44.209C14.6039 44.2123 14.8756 44.2001 15.1458 44.1726C15.1165 44.3815 15.1094 44.9573 15.1094 45.2385V48.2326C15.1094 48.5061 15.1165 49.0684 15.1452 49.2691H14.3323ZM17.7237 49.2691C17.7607 48.9228 17.7742 48.0019 17.7742 47.5335V45.9428C17.7742 45.4821 17.7607 44.5547 17.7237 44.2084C17.9907 44.2119 18.2576 44.1997 18.5232 44.172C18.502 44.3809 18.4938 44.9568 18.4938 45.2379V48.2326C18.4938 48.5055 18.502 49.0678 18.5232 49.2691H17.7237ZM24.8517 48.823C24.3832 49.1964 23.8015 49.3993 23.2024 49.3983C22.8701 49.4013 22.5406 49.338 22.2332 49.2121C21.9257 49.0861 21.6465 48.9 21.4119 48.6647C21.1773 48.4294 20.9921 48.1496 20.867 47.8418C20.742 47.5339 20.6797 47.2042 20.6838 46.872C20.6684 46.513 20.7255 46.1546 20.8519 45.8182C20.9783 45.4819 21.1713 45.1744 21.4192 44.9144C21.6672 44.6544 21.9651 44.4471 22.2951 44.3049C22.6251 44.1627 22.9804 44.0885 23.3397 44.0869C23.8724 44.0871 24.3931 44.2447 24.8365 44.54L24.6346 45.2021C24.2525 44.902 23.7815 44.7374 23.2957 44.7343C23.0402 44.7348 22.7876 44.7875 22.5531 44.889C22.3187 44.9905 22.1074 45.1388 21.9323 45.3248C21.7571 45.5108 21.6218 45.7305 21.5345 45.9706C21.4471 46.2107 21.4097 46.4661 21.4245 46.7211C21.4245 48.0377 22.231 48.7503 23.2452 48.7503C23.556 48.7471 23.8629 48.681 24.1474 48.5562C24.432 48.4313 24.6883 48.2501 24.901 48.0236L24.8517 48.823ZM30.51 49.3272L29.8409 47.8364H27.7178L27.6967 47.8951C27.5089 48.3265 27.3076 48.8225 27.1274 49.2697H26.3356L28.0489 45.5836C28.3295 44.9791 28.5167 44.5547 28.6746 44.1374L28.8624 44.0863L30.5898 47.7935C30.7923 48.2402 31.0723 48.823 31.3024 49.2697L30.51 49.3272ZM29.575 47.2465L28.7761 45.4539L27.9843 47.2465H29.575ZM36.3502 46.8931C36.6372 46.8896 36.7793 46.8826 37.0956 46.8661C37.0598 47.1391 37.0704 47.844 37.0704 48.3124V48.8659C36.5444 49.2294 35.9164 49.4161 35.2773 49.3988C34.597 49.4081 33.9408 49.1474 33.4524 48.6737C32.9641 48.2001 32.6833 47.5522 32.6718 46.872C32.6604 46.5068 32.7233 46.1431 32.8566 45.8028C32.9898 45.4626 33.1907 45.1529 33.447 44.8926C33.7033 44.6322 34.0098 44.4265 34.3479 44.2879C34.686 44.1493 35.0487 44.0807 35.414 44.0863C35.9784 44.0867 36.5317 44.2436 37.0123 44.5394L36.8104 45.2015C36.3905 44.9002 35.8874 44.7367 35.3706 44.7337C35.1082 44.7233 34.8465 44.7679 34.6023 44.8645C34.3581 44.9611 34.1368 45.1077 33.9526 45.2948C33.7683 45.4819 33.6251 45.7054 33.5322 45.951C33.4393 46.1966 33.3987 46.4589 33.4131 46.7211C33.3887 46.9834 33.4203 47.2478 33.5058 47.4969C33.5914 47.746 33.7289 47.974 33.9093 48.1659C34.0897 48.3578 34.3088 48.5091 34.5521 48.6099C34.7955 48.7106 35.0575 48.7585 35.3207 48.7503C35.6825 48.7642 36.0419 48.685 36.3643 48.5202V47.6433C36.3643 47.5347 36.3643 47.341 36.3502 47.2113V46.8931ZM44.0746 46.6131C44.0968 46.969 44.0463 47.3257 43.926 47.6614C43.8057 47.997 43.6183 48.3047 43.3751 48.5654C43.1318 48.8261 42.838 49.0345 42.5115 49.1778C42.185 49.3211 41.8327 49.3963 41.4761 49.3988C41.1471 49.4008 40.8211 49.3362 40.5176 49.209C40.2142 49.0818 39.9396 48.8945 39.7103 48.6585C39.481 48.4225 39.3018 48.1426 39.1835 47.8356C39.0651 47.5286 39.01 47.2008 39.0215 46.872C38.9991 46.5161 39.0496 46.1593 39.1699 45.8235C39.2901 45.4878 39.4777 45.1801 39.721 44.9193C39.9643 44.6586 40.2582 44.4502 40.5848 44.307C40.9114 44.1637 41.2639 44.0886 41.6205 44.0863C41.9495 44.0844 42.2754 44.1489 42.5789 44.2761C42.8823 44.4033 43.1568 44.5905 43.3861 44.8264C43.6153 45.0624 43.7946 45.3422 43.913 45.6491C44.0314 45.9561 44.0865 46.2838 44.0751 46.6126M43.3338 46.7282C43.3338 45.4539 42.5555 44.6973 41.5407 44.6973C40.4759 44.6973 39.7634 45.6341 39.7634 46.757C39.7634 48.0306 40.5399 48.7878 41.5553 48.7878C42.6213 48.7878 43.3338 47.851 43.3338 46.7282Z" fill="white"/>
</g>
<defs>
<clipPath id="clip0_12_483">
<rect width="54" height="54" fill="white"/>
</clipPath>
</defs>
</svg>
