<svg width="24" height="24" viewBox="0 0 24 24" fill="none" xmlns="http://www.w3.org/2000/svg">
<path fill-rule="evenodd" clip-rule="evenodd" d="M5.23048 5.23048C6.65863 3.80233 8.59563 3 10.6153 3C12.6351 3 14.572 3.80233 16.0002 5.23048C17.4283 6.65863 18.2307 8.59563 18.2307 10.6153C18.2307 12.403 17.6021 14.1258 16.4674 15.4884L20.7972 19.8182C21.0676 20.0886 21.0676 20.5269 20.7972 20.7972C20.5269 21.0676 20.0886 21.0676 19.8182 20.7972L15.4884 16.4674C14.1258 17.6021 12.403 18.2307 10.6153 18.2307C8.59563 18.2307 6.65863 17.4284 5.23048 16.0002C3.80233 14.572 3 12.6351 3 10.6153C3 8.59563 3.80233 6.65863 5.23048 5.23048ZM10.6153 4.38456C8.96283 4.38456 7.37801 5.04102 6.20951 6.20951C5.04102 7.37801 4.38456 8.96283 4.38456 10.6153C4.38456 12.2678 5.04102 13.8527 6.20951 15.0212C7.37801 16.1897 8.96283 16.8461 10.6153 16.8461C12.2678 16.8461 13.8527 16.1897 15.0212 15.0212C16.1897 13.8527 16.8461 12.2678 16.8461 10.6153C16.8461 8.96283 16.1897 7.37801 15.0212 6.20951C13.8527 5.04102 12.2678 4.38456 10.6153 4.38456Z" fill="#808080"/>
</svg>
